<?xml version="1.0" standalone="no"?>
<!DOCTYPE svg PUBLIC "-//W3C//DTD SVG 20010904//EN"
 "http://www.w3.org/TR/2001/REC-SVG-20010904/DTD/svg10.dtd">
<svg version="1.0" xmlns="http://www.w3.org/2000/svg"
 width="1280.000000pt" height="657.000000pt" viewBox="0 0 1280.000000 657.000000"
 preserveAspectRatio="xMidYMid meet">
<metadata>
Created by potrace 1.15, written by Peter Selinger 2001-2017
</metadata>
<g transform="translate(0.000000,657.000000) scale(0.100000,-0.100000)"
fill="#000000" stroke="none">
<path d="M8209 6566 c-7 -7 -256 -45 -379 -58 -78 -8 -359 -12 -865 -13 -751
-2 -883 -7 -1125 -41 -465 -66 -814 -224 -1082 -488 -84 -82 -185 -205 -225
-274 -27 -46 -27 -46 -88 4 -146 117 -379 240 -570 303 -190 62 -343 84 -575
84 -278 0 -494 -38 -795 -138 -482 -160 -951 -415 -1790 -975 -121 -81 -241
-156 -267 -168 -123 -54 -192 -181 -244 -450 -3 -13 -9 -20 -15 -17 -23 15
-39 -18 -39 -76 0 -47 3 -59 16 -59 17 0 16 -44 -1 -46 -5 0 -23 -6 -38 -12
-16 -7 -41 -12 -55 -12 -36 0 -72 -26 -72 -51 0 -24 323 -552 953 -1559 416
-665 892 -1433 969 -1564 17 -28 91 -159 165 -291 74 -132 164 -285 200 -339
67 -103 193 -266 234 -302 l24 -22 165 82 c638 316 1415 646 2501 1061 255 98
529 206 609 240 80 34 215 93 300 130 178 77 379 146 495 170 109 22 286 21
469 -5 238 -32 381 -24 564 31 139 43 235 93 510 268 295 187 448 230 1055
297 177 19 534 62 792 94 970 123 1739 210 2380 270 182 17 340 33 351 35 19
4 22 12 22 72 1 38 10 110 21 160 12 51 21 117 21 147 l0 54 -177 139 c-180
141 -379 286 -466 339 -26 16 -50 38 -54 49 -13 41 -3 123 26 211 36 108 33
134 -14 134 -25 0 -39 7 -55 28 -39 49 -90 61 -104 25 -5 -11 -14 -8 -43 15
-266 208 -1014 727 -2158 1497 -782 527 -1010 681 -1327 902 -157 109 -203
134 -219 119z m128 -114 c287 -201 629 -433 1335 -908 1389 -935 2183 -1490
2220 -1553 l16 -29 -126 -16 c-264 -34 -640 -55 -1282 -71 -1092 -27 -1637
-121 -2135 -366 -295 -144 -563 -359 -753 -601 l-53 -67 -42 29 c-23 15 -64
54 -91 85 -47 55 -101 89 -131 83 -26 -5 -683 612 -1765 1657 -243 234 -536
512 -767 729 -117 109 -213 200 -213 203 0 15 99 150 168 228 248 284 594 462
1049 540 259 44 357 48 1128 50 407 1 781 5 830 9 150 12 356 36 425 50 36 8
70 14 77 15 7 0 56 -30 110 -67z m-4794 -427 c210 -27 366 -75 562 -172 151
-75 292 -171 405 -278 52 -50 158 -149 235 -220 181 -168 472 -444 810 -770
812 -782 1214 -1165 1528 -1454 103 -95 187 -175 187 -177 0 -8 -25 -48 -42
-65 -15 -15 -24 -16 -95 -7 -113 16 -576 16 -708 0 -770 -92 -1359 -318 -2695
-1033 -451 -241 -988 -511 -1001 -503 -12 7 -225 322 -397 589 -210 325 -295
459 -650 1030 -529 850 -846 1343 -1076 1669 -53 76 -94 142 -89 146 12 12
439 295 617 410 735 474 1275 721 1786 815 203 37 436 45 623 20z m-2946
-1472 c245 -354 528 -793 938 -1453 535 -862 762 -1218 1008 -1583 l140 -208
-16 -194 c-30 -340 -38 -395 -59 -395 -30 0 -39 -43 -32 -148 5 -68 3 -94 -4
-87 -44 42 -1486 2324 -2061 3263 -139 226 -257 412 -262 412 -5 0 -9 5 -9 11
0 8 4 8 14 0 22 -18 40 15 41 75 1 38 -3 54 -12 54 -18 0 -16 29 7 135 26 116
78 223 132 269 23 20 43 36 44 36 1 0 60 -84 131 -187z m11366 -802 c-4 -120
-2 -140 12 -155 13 -13 20 -14 31 -5 10 8 14 8 14 0 0 -6 -4 -11 -10 -11 -13
0 -13 -78 1 -159 5 -35 37 -149 71 -253 34 -103 58 -191 54 -196 -4 -4 -281
-10 -614 -14 -1059 -12 -1455 -30 -1856 -84 -664 -88 -1095 -259 -1400 -556
-127 -123 -115 -124 -171 18 -68 174 -99 199 -245 198 -77 0 -115 -6 -200 -32
-58 -17 -122 -34 -144 -38 l-38 -7 7 34 c10 48 35 94 92 170 28 37 59 89 68
115 24 64 80 137 192 250 381 384 880 602 1598 698 274 37 537 53 1150 71 708
21 1061 42 1280 79 44 8 87 14 97 15 14 1 16 -13 11 -138z m137 -141 c0 -5 -4
-10 -10 -10 -5 0 -10 5 -10 10 0 6 5 10 10 10 6 0 10 -4 10 -10z m-5080 -780
c187 -14 200 -17 200 -46 0 -26 15 -32 93 -36 l48 -3 -121 -184 c-162 -248
-209 -376 -210 -567 l0 -71 -197 -7 c-536 -18 -937 -80 -1380 -212 -534 -159
-953 -358 -1883 -894 -510 -294 -874 -489 -887 -476 -3 3 6 52 21 108 31 115
34 246 7 240 -11 -2 -12 7 -8 45 4 26 18 162 32 302 14 140 26 255 27 256 2 2
109 54 238 117 129 63 451 229 715 370 809 430 1021 535 1398 692 692 288
1328 410 1907 366z"/>
</g>
</svg>
