<svg clip-rule="evenodd" fill-rule="evenodd" stroke-linejoin="round" stroke-miterlimit="2" viewBox="0 0 64 64" xmlns="http://www.w3.org/2000/svg"><path d="m1.578 0h62.422v64h-62.422z" fill="#77b3d4" transform="matrix(1.02528 0 0 1 -1.61818 0)"/><g fill-rule="nonzero"><path d="m48 50c0 2.209-1.791 4-4 4h-24c-2.209 0-4-1.791-4-4v-32c0-2.209 1.791-4 4-4h24c2.209 0 4 1.791 4 4z" fill="#231f20" fill-opacity=".2"/><path d="m48 48c0 2.209-1.791 4-4 4h-24c-2.209 0-4-1.791-4-4v-32c0-2.209 1.791-4 4-4h24c2.209 0 4 1.791 4 4z" fill="#4f5d73"/><path d="m35 14v7.846c0 .264.163.503.411.604.083.033.169.05.255.05.173 0 .344-.067.471-.192l2.863-2.807 2.862 2.807c.127.125.298.192.471.192.086 0 .173-.016.255-.05.249-.101.412-.34.412-.604v-7.846z" fill="#231f20" fill-opacity=".2"/><path d="m35 12v7.846c0 .264.163.503.411.604.083.033.169.05.255.05.173 0 .344-.067.471-.192l2.863-2.807 2.862 2.807c.127.125.298.192.471.192.086 0 .173-.016.255-.05.249-.101.412-.34.412-.604v-7.846z" fill="#c75c5c"/></g><path d="m20 12h3v40h-3z" fill="#e0e0d1"/></svg>