<?xml version="1.0" encoding="UTF-8" standalone="no"?>
<!DOCTYPE svg PUBLIC "-//W3C//DTD SVG 1.1//EN" "http://www.w3.org/Graphics/SVG/1.1/DTD/svg11.dtd">
<svg width="100%" height="100%" viewBox="0 0 64 64" version="1.1" xmlns="http://www.w3.org/2000/svg" xmlns:xlink="http://www.w3.org/1999/xlink" xml:space="preserve" xmlns:serif="http://www.serif.com/" style="fill-rule:evenodd;clip-rule:evenodd;stroke-linejoin:round;stroke-miterlimit:2;">
    <g>
        <circle cx="32" cy="32" r="32" style="fill:rgb(119,179,212);"/>
        <path d="M48,50C48,52.209 46.209,54 44,54L20,54C17.791,54 16,52.209 16,50L16,18C16,15.791 17.791,14 20,14L44,14C46.209,14 48,15.791 48,18L48,50Z" style="fill:rgb(35,31,32);fill-opacity:0.2;fill-rule:nonzero;"/>
        <path d="M48,48C48,50.209 46.209,52 44,52L20,52C17.791,52 16,50.209 16,48L16,16C16,13.791 17.791,12 20,12L44,12C46.209,12 48,13.791 48,16L48,48Z" style="fill:rgb(79,93,115);fill-rule:nonzero;"/>
        <path d="M35,14L35,21.846C35,22.11 35.163,22.349 35.411,22.45C35.494,22.483 35.58,22.5 35.666,22.5C35.839,22.5 36.01,22.433 36.137,22.308L39,19.501L41.862,22.308C41.989,22.433 42.16,22.5 42.333,22.5C42.419,22.5 42.506,22.484 42.588,22.45C42.837,22.349 43,22.11 43,21.846L43,14L35,14Z" style="fill:rgb(35,31,32);fill-opacity:0.2;fill-rule:nonzero;"/>
        <path d="M35,12L35,19.846C35,20.11 35.163,20.349 35.411,20.45C35.494,20.483 35.58,20.5 35.666,20.5C35.839,20.5 36.01,20.433 36.137,20.308L39,17.501L41.862,20.308C41.989,20.433 42.16,20.5 42.333,20.5C42.419,20.5 42.506,20.484 42.588,20.45C42.837,20.349 43,20.11 43,19.846L43,12L35,12Z" style="fill:rgb(199,92,92);fill-rule:nonzero;"/>
    </g>
    <rect x="20" y="12" width="3" height="40" style="fill:rgb(224,224,209);"/>
</svg>
